<?xml version="1.0" encoding="utf-8"?>
<!-- Generator: Adobe Illustrator 25.0.0, SVG Export Plug-In . SVG Version: 6.00 Build 0)  -->
<svg version="1.1" id="Layer_1" xmlns="http://www.w3.org/2000/svg" xmlns:xlink="http://www.w3.org/1999/xlink" x="0px" y="0px"
	 viewBox="0 0 2430 340" style="enable-background:new 0 0 2430 340;" xml:space="preserve">
<style type="text/css">
	.st0{fill:#075DD1;}
	.st1{fill:#FF751F;}
	.st2{fill:#FFFFFF;}
</style>
<g>
	<g>
		<polygon points="322.8,245.6 364.7,245.6 364.7,179.7 448.3,179.7 448.3,146.1 364.7,146.1 364.7,98.4 459.4,98.4 459.4,64.8 
			322.8,64.8 		"/>
		<path d="M520.9,124.9v-18.3h-38.5v138.9h40.3c4-40.1-18.9-111.4,46-103.8v-37.2C548.6,104.8,532.2,109.9,520.9,124.9z"/>
		<rect x="592.7" y="106.3" width="40.3" height="139.2"/>
		<path d="M630.9,48.4c-22.4-18.8-59.1,7.9-36.2,32.4C617.1,100.7,654,72.5,630.9,48.4z"/>
		<path d="M763.5,121.2c-18.3-20.6-54.1-20.7-76.9-7.8c-22.6,12.7-34.3,35.7-34.1,62.7c-0.2,26.8,11.6,49.8,34.1,62.6
			c23.5,13.4,61.1,13,78.8-9.2v16.1h38.5V64.5h-40.3V121.2z M759.5,196.6c-8.8,17.4-32.5,22.9-48.7,13.3
			c-18-9.7-22.1-37.6-12.8-54.5C727,112.9,781.8,152.1,759.5,196.6z"/>
		<path d="M938.2,119.5c-25.9-22.4-80.6-18.2-109.2,1.8l14.5,28.1c20.4-16.6,72.6-22.5,72,14.5c-18.2,0.3-51.6-1.8-66.4,5.3
			c-24.4,8.2-32.2,37.3-19.1,57.7c17.3,26.6,71.1,29.1,88.1,1.3v17.3h37.7C952.9,215.4,966.2,139,938.2,119.5z M903.9,215.7
			c-17.7,12.4-55.3-0.2-35.5-23.6c7-7.2,36.4-4,47.1-4.6C916.1,200.4,915.8,208.3,903.9,215.7z"/>
		<path d="M1047.9,201l-39-94.3h-41.6l60.1,140.1c-6.3,21.9-31,23.1-45.9,9.7l-14.7,28.7c22.4,17.7,61.3,18,81-4.6
			c13.9-12.7,68.2-154.7,78.1-173.8h-38.7L1047.9,201z"/>
		<path d="M1266.7,187.5c23.7-10.4,36.8-30.8,36.7-57.1c0.6-81.8-101.1-64-156.7-65.6v180.8h41.8v-50.4h36.4c0.7,0,1.3,0,1.9,0
			l34.7,50.4h45.2l-40.4-58C1266.4,187.6,1266.5,187.5,1266.7,187.5z M1251.4,107.2c12.7,10,12.8,36.2,0,46.4
			c-11.2,12-46.6,7.7-63,8.4v-63C1204.8,99.6,1240.1,95.3,1251.4,107.2z"/>
		<path d="M1428.4,113.2c-66.8-33.3-138.3,31.7-101.1,99.7c24.1,40.8,94.9,47.4,126.8,12.3l-21.4-23.2
			c-20.5,21.4-67.9,18.1-74.6-14.5h105.1C1467.4,157.1,1455.3,127,1428.4,113.2z M1373.7,139.6c20.1-11.8,50-0.1,52.3,24.4h-68.4
			C1359.1,153.7,1364.8,144.6,1373.7,139.6z"/>
		<path d="M1600.2,113.5c-23.5-13.5-61.1-12.9-78.9,9.2v-16.1h-38.5v189h40.3v-64.9c27.6,29.7,83.5,18.3,101.9-16.7
			C1643.2,182.1,1634.3,131.3,1600.2,113.5z M1588.5,196.6c-8.7,17.5-32.4,22.9-48.7,13.3c-18-9.7-21.7-37.6-12.7-54.5
			c8.6-17.3,32.6-22.7,48.7-13.2C1593.8,152,1597.9,179.5,1588.5,196.6z"/>
		<path d="M1765.2,113.7c-48-25.6-117.3,3-115.7,62.4c-1.8,58.7,68.3,88.3,115.7,62.2C1814.1,214.3,1814.3,137.5,1765.2,113.7z
			 M1756.7,196.6c-8.6,17.5-32.6,22.8-48.8,13.3c-18-9.7-22.1-37.6-12.8-54.5c8.9-17.3,32.7-22.7,48.9-13.2
			C1762,152,1765.7,179.5,1756.7,196.6z"/>
		<path d="M1861.2,124.9v-18.3h-38.5v138.9h40.3c4-40.1-18.9-111.4,46-103.8v-37.2C1889,104.8,1872.5,109.9,1861.2,124.9z"/>
		<path d="M2011,215.6c-11,0-17.4-7.2-17.3-18.3c0,0,0-59.6,0-59.6h34.6v-31h-34.6V75.9h-40.3v30.7H1932v31h21.4
			c2.2,24-7.8,81.4,13.7,97.5c15.7,15.1,51.6,17,71,3.7l-10.8-28.4C2022.8,213.9,2017.4,215.6,2011,215.6z"/>
		<path d="M2076.4,197.5c-33.3-0.2-32.9,50.1,0,50.1C2109.3,248.2,2109.6,196.7,2076.4,197.5z"/>
		<path d="M2190.3,64.8l-80.6,180.8h42.9l16.1-38.7h83.8l16,38.7h43.9l-80.8-180.8H2190.3z M2182,175.1l28.8-69.2l28.7,69.2H2182z"
			/>
		<rect x="2328.9" y="64.8" width="41.8" height="180.8"/>
	</g>
	<g>
		<path class="st0" d="M222.2,183.2c-16.8,0-30.5,13.7-30.5,30.5c0,16.8,13.7,30.5,30.5,30.5c8.1,0,15.8-3.2,21.6-9
			c5.8-5.8,9-13.4,9-21.6C252.8,196.9,239.1,183.2,222.2,183.2z"/>
		<path class="st1" d="M104.4,184.4H73.9c-7.7,0-14,6.3-14,14v30.5c0,7.7,6.3,14,14,14h30.5c7.7,0,14-6.3,14-14v-30.5
			C118.4,190.7,112.1,184.4,104.4,184.4z"/>
		<path class="st1" d="M104.4,117.2H73.9c-7.7,0-14,6.3-14,14v30.5c0,7.7,6.3,14,14,14h30.5c7.7,0,14-6.3,14-14v-30.5
			C118.4,123.5,112.1,117.2,104.4,117.2z"/>
		<path class="st1" d="M104.4,49.9c-24.5,0-44.5,20-44.5,44.5c0,7.7,6.3,14,14,14h30.5c7.7,0,14-6.3,14-14V64
			C118.4,56.2,112.1,49.9,104.4,49.9z"/>
		<path class="st1" d="M156.4,117.2h-15.2c-7.7,0-14,6.3-14,14v30.5c0,7.7,6.3,14,14,14h15.2c16.1,0,29.3-13.1,29.3-29.3
			C185.7,130.3,172.5,117.2,156.4,117.2z"/>
		<path class="st1" d="M171.6,49.9h-30.4c-7.7,0-14,6.3-14,14v30.5c0,7.7,6.3,14,14,14h30.4c7.7,0,14.1-6.3,14.1-14V64
			C185.7,56.2,179.4,49.9,171.6,49.9z"/>
		<path class="st1" d="M208.4,108.5h15.2c16.1,0,29.3-13.1,29.3-29.3c0-16.1-13.1-29.3-29.3-29.3h-15.2c-7.7,0-14,6.3-14,14v30.5
			C194.4,102.2,200.7,108.5,208.4,108.5z"/>
	</g>
</g>
</svg>
