<?xml version="1.0" encoding="utf-8"?>
<!-- Generator: Adobe Illustrator 25.0.0, SVG Export Plug-In . SVG Version: 6.00 Build 0)  -->
<svg version="1.1" id="Layer_1" xmlns="http://www.w3.org/2000/svg" xmlns:xlink="http://www.w3.org/1999/xlink" x="0px" y="0px"
	 viewBox="0 0 540 540" style="enable-background:new 0 0 540 540;" xml:space="preserve">
<style type="text/css">
	.st0{fill:#075DD1;}
	.st1{fill:#FF751F;}
	.st2{fill:#FFFFFF;}
</style>
<g>
	<path class="st0" d="M433.8,359.7c-41.9,0-75.9,34.1-75.9,75.9c0,41.9,34.1,75.9,75.9,75.9c20.2,0,39.3-7.9,53.7-22.3
		c14.4-14.4,22.3-33.4,22.3-53.7C509.7,393.8,475.6,359.7,433.8,359.7z"/>
	<path class="st1" d="M140.7,362.8H64.9c-19.3,0-34.9,15.7-34.9,34.9v75.8c0,19.3,15.7,34.9,34.9,34.9h75.8
		c19.3,0,34.9-15.7,34.9-34.9v-75.8C175.6,378.5,159.9,362.8,140.7,362.8z"/>
	<path class="st1" d="M140.7,195.6H64.9c-19.3,0-34.9,15.7-34.9,34.9v75.8c0,19.3,15.7,34.9,34.9,34.9h75.8
		c19.3,0,34.9-15.7,34.9-34.9v-75.8C175.6,211.3,159.9,195.6,140.7,195.6z"/>
	<path class="st1" d="M140.7,28.4C79.7,28.4,30,78.1,30,139.1c0,19.3,15.7,34.9,34.9,34.9h75.8c19.3,0,34.9-15.7,34.9-34.9V63.3
		C175.6,44.1,159.9,28.4,140.7,28.4z"/>
	<path class="st1" d="M270,195.6h-37.9c-19.3,0-34.9,15.7-34.9,34.9v75.8c0,19.3,15.7,34.9,34.9,34.9H270
		c40.1,0,72.8-32.7,72.8-72.8C342.8,228.3,310.1,195.6,270,195.6z"/>
	<path class="st1" d="M307.8,28.4h-75.7c-19.3,0-34.9,15.7-34.9,34.9v75.8c0,19.2,15.7,34.9,34.9,34.9h75.7
		c19.3,0,34.9-15.7,35-34.9V63.4C342.8,44.1,327.1,28.4,307.8,28.4z"/>
	<path class="st1" d="M399.3,174h37.9c40.1,0,72.8-32.7,72.8-72.8c0-40.1-32.7-72.8-72.8-72.8h-37.9c-19.3,0-34.9,15.7-34.9,34.9
		v75.8C364.4,158.4,380.1,174,399.3,174z"/>
</g>
</svg>
