<svg id="Layer_1" data-name="Layer 1" xmlns="http://www.w3.org/2000/svg" viewBox="0 0 241.355 40.535"><defs><style>.cls-2{fill:#0a4644}</style></defs><path d="M36.234 5.806a.97.97 0 00-1.194.011l-9.694 7.72L19.183.555a.97.97 0 00-1.752 0l-6.163 12.984-9.694-7.72A.97.97 0 00.081 6.962l7.018 16.133a.97.97 0 001.766.03l3.107-6.547 5.73 4.564a.97.97 0 001.21 0l5.73-4.564 3.107 6.546a.97.97 0 00.877.555.946.946 0 00.89-.584l7.018-16.133a.97.97 0 00-.3-1.157zM8.027 20.366L3.414 9.763l7 5.575zm10.28-1.222l-5.48-4.365 5.48-11.547 5.48 11.547zm10.28 1.222L26.2 15.338l7-5.575z" fill="#21d182"/><path class="cls-2" d="M75.98 5.606c-7.013 0-12.507 5.722-12.507 13.026V27.9H55.54V11.433a5.827 5.827 0 00-11.17-2.324L30.704 40.522h4.099l12.939-29.744a2.04 2.04 0 011.97-1.413 1.912 1.912 0 012.068 2.193V27.9h-8.266v3.664h8.266v8.958h3.759v-8.958h7.934v8.958h3.76v-8.958h7.016c10.664 0 14.237-7.285 14.237-12.932 0-7.304-5.493-13.026-12.506-13.026zM74.249 27.9h-7.017v-9.268c0-5.119 3.26-9.267 8.748-9.267 4.905 0 8.747 4.07 8.747 9.267 0 6.403-4.655 9.268-10.478 9.268z"/><polygon class="cls-2" points="180.263 36.145 178.103 31.097 176.557 31.097 176.557 37.887 177.918 37.887 177.918 33.47 179.747 37.887 180.778 37.887 182.598 33.47 182.598 37.887 183.96 37.887 183.96 31.097 182.423 31.097 180.263 36.145"/><path class="cls-2" d="M142.8 25.892h2.705l.448 1.294h1.44l-2.443-6.8h-1.585l-2.442 6.8h1.43zm1.353-3.93l.982 2.84h-1.965zm38.834-.808a.83.83 0 00.598-.228.799.799 0 000-1.138.897.897 0 00-1.196 0 .798.798 0 000 1.138.83.83 0 00.598.228z"/><rect class="cls-2" x="182.296" y="21.796" width="1.362" height="5.389"/><path class="cls-2" d="M223.263 32.421a2.08 2.08 0 00-1.84 1.026 2.058 2.058 0 00-1.9-1.026 1.978 1.978 0 00-1.584.724v-.648h-1.358v5.384h1.358V34.91a1.21 1.21 0 112.413 0v2.971h1.357V34.91a1.171 1.171 0 011.207-1.312c.769 0 1.191.497 1.191 1.312v2.971h1.373v-3.167a2.096 2.096 0 00-2.217-2.293zm-15.053.845a2.114 2.114 0 00-1.78-.86 2.513 2.513 0 00-2.458 2.76 2.545 2.545 0 002.459 2.805 2.18 2.18 0 001.78-.89v.845a1.39 1.39 0 01-2.655.619H204.2c.135 1.312 1.282 1.99 2.714 1.99a2.47 2.47 0 002.67-2.609v-5.43h-1.372zm-1.432 3.514a1.497 1.497 0 01-1.418-1.614 1.447 1.447 0 011.418-1.568 1.6 1.6 0 010 3.182zm-45.292-4.374a2.578 2.578 0 00-2.7 2.775 2.59 2.59 0 002.7 2.79 2.488 2.488 0 002.519-1.78h-1.463a1.133 1.133 0 01-1.086.65 1.264 1.264 0 01-1.297-1.237h3.936a2.869 2.869 0 00.046-.528 2.53 2.53 0 00-2.655-2.67zm-1.312 2.278a1.244 1.244 0 011.267-1.162 1.184 1.184 0 011.282 1.162zm52.912-2.278a2.578 2.578 0 00-2.7 2.775 2.59 2.59 0 002.7 2.79 2.488 2.488 0 002.52-1.78h-1.464a1.133 1.133 0 01-1.086.65 1.264 1.264 0 01-1.297-1.237h3.937a2.87 2.87 0 00.045-.528 2.53 2.53 0 00-2.655-2.67zm-1.312 2.278a1.244 1.244 0 011.267-1.162 1.184 1.184 0 011.282 1.162zm17.16-2.278a2.578 2.578 0 00-2.7 2.775 2.59 2.59 0 002.7 2.79 2.488 2.488 0 002.518-1.78h-1.463a1.133 1.133 0 01-1.086.65 1.264 1.264 0 01-1.297-1.237h3.937a2.87 2.87 0 00.045-.528 2.53 2.53 0 00-2.654-2.67zm-1.313 2.278a1.244 1.244 0 011.267-1.162 1.184 1.184 0 011.282 1.162zm-71.006 4.086c0 .423-.227.529-.574.529h-.377v1.146h.589c1.206 0 1.719-.573 1.719-1.674v-6.274h-1.357zm.693-8.52a.82.82 0 00-.86.799.802.802 0 00.86.8.772.772 0 00.815-.8.79.79 0 00-.815-.8zm-13.468.844h-2.489v6.787h1.358v-2.61h1.131c1.493 0 2.458-.768 2.458-2.08 0-1.373-1.025-2.097-2.458-2.097zm-.045 3.077h-1.086v-1.976h1.086c.739 0 1.1.332 1.1.995s-.391.98-1.1.98zm67.688-11.025v-1.433a1.86 1.86 0 00-1.644.92v-.845h-1.372v5.4h1.372v-2.685c0-.905.332-1.357 1.282-1.357zm-63.186 10.186v-.845h-1.373v5.4h1.373v-2.685c0-.905.332-1.357 1.282-1.357h.362v-1.433a1.86 1.86 0 00-1.644.92zm51.241-6.144h1.373v-4.284h.95v-1.116h-.95v-.226c0-.603.256-.814.89-.784v-1.162c-1.509-.03-2.263.558-2.263 1.9v.272h-.618v1.116h.618zm-7.36-2.987a1.212 1.212 0 112.413 0v2.987h1.358V24.02a2.068 2.068 0 00-2.142-2.307 2.004 2.004 0 00-1.629.754v-.679h-1.357v5.4h1.357zm2.414 8.211a2.004 2.004 0 00-1.629.754v-.679h-1.357v5.4h1.357V34.9a1.212 1.212 0 112.413 0v2.986h1.358V34.72a2.068 2.068 0 00-2.142-2.308zm40.818 0a2.004 2.004 0 00-1.629.754v-.679h-1.357v5.4h1.357V34.9a1.212 1.212 0 112.413 0v2.986h1.358V34.72a2.068 2.068 0 00-2.142-2.308zm-56.504-6.898a1.5 1.5 0 001.72 1.674h.859V26.04h-.633c-.377 0-.574-.15-.574-.527v-2.61h1.207v-1.116h-1.207V20.46h-1.372v1.327h-.633v1.116h.633zm-6.678 5.645h-1.373v1.327h-.633v1.116h.633v2.61a1.5 1.5 0 001.72 1.673h.86V36.74h-.634c-.377 0-.573-.15-.573-.528v-2.61h1.206v-1.115h-1.206zm69.127 2.443v-1.116h-1.206v-1.327h-1.373v1.327h-.633v1.116h.633v2.61a1.5 1.5 0 001.72 1.673h.86V36.74h-.634c-.377 0-.573-.15-.573-.528v-2.61zm-63.806-6.414v-5.4h-1.373v.77a2.237 2.237 0 00-1.78-.86 2.535 2.535 0 00-2.458 2.775 2.538 2.538 0 002.443 2.79 2.116 2.116 0 001.795-.875v.8zm-2.806-1.116a1.482 1.482 0 01-1.417-1.6 1.43 1.43 0 011.417-1.568 1.454 1.454 0 011.433 1.584 1.455 1.455 0 01-1.433 1.584zm14.362 7.185a2.237 2.237 0 00-1.78-.86 2.535 2.535 0 00-2.458 2.775 2.538 2.538 0 002.443 2.79 2.116 2.116 0 001.795-.875v.8h1.373v-5.4h-1.373zm-1.433 3.514a1.482 1.482 0 01-1.417-1.599 1.43 1.43 0 011.417-1.569 1.592 1.592 0 010 3.168zm14.08-3.514a2.237 2.237 0 00-1.78-.86 2.535 2.535 0 00-2.458 2.775 2.538 2.538 0 002.443 2.79 2.116 2.116 0 001.795-.875v.8h1.372v-5.4h-1.372zm-1.433 3.514a1.482 1.482 0 01-1.418-1.599 1.43 1.43 0 011.418-1.569 1.592 1.592 0 010 3.168zM170.46 21.155a.8.8 0 10-.845-.8.793.793 0 00.845.8z"/><rect class="cls-2" x="169.766" y="21.788" width="1.357" height="5.399"/><path class="cls-2" d="M168.982 25.363h-1.463a1.028 1.028 0 01-1.086.739c-.89 0-1.267-.754-1.267-1.614 0-.98.453-1.629 1.267-1.629a1.05 1.05 0 011.086.754h1.463a2.428 2.428 0 00-2.534-1.915 2.606 2.606 0 00-2.67 2.79 2.585 2.585 0 002.67 2.775 2.453 2.453 0 002.534-1.9zm-1.682 8.201a1.05 1.05 0 011.085.754h1.463a2.428 2.428 0 00-2.533-1.915 2.606 2.606 0 00-2.67 2.79 2.585 2.585 0 002.67 2.775 2.453 2.453 0 002.533-1.9h-1.463a1.028 1.028 0 01-1.085.739c-.89 0-1.267-.754-1.267-1.614 0-.98.452-1.629 1.267-1.629zm-4.004-9.076a2.775 2.775 0 10-5.55 0 2.625 2.625 0 002.73 2.775 2.68 2.68 0 002.82-2.775zm-4.163 0a1.409 1.409 0 011.373-1.599 1.435 1.435 0 011.387 1.599 1.432 1.432 0 01-1.417 1.599c-.845 0-1.343-.649-1.343-1.599zm-6.077 7.914a2.681 2.681 0 00-2.775 2.79 2.625 2.625 0 002.73 2.775 2.783 2.783 0 10.045-5.565zm-.045 4.389c-.844 0-1.342-.649-1.342-1.599a1.409 1.409 0 011.372-1.599 1.613 1.613 0 01-.03 3.198zm34.169-9.528a2.783 2.783 0 10-2.729-2.775 2.625 2.625 0 002.73 2.775zm.031-4.374a1.435 1.435 0 011.388 1.599 1.432 1.432 0 01-1.418 1.599c-.845 0-1.342-.649-1.342-1.599a1.409 1.409 0 011.372-1.599zm17.626 4.374a2.783 2.783 0 10-2.73-2.775 2.625 2.625 0 002.73 2.775zm.03-4.374a1.435 1.435 0 011.388 1.599 1.432 1.432 0 01-1.418 1.599c-.845 0-1.342-.649-1.342-1.599a1.409 1.409 0 011.372-1.599zm-52.762 2.761c0-1.041-.83-1.388-1.9-1.645-.694-.18-1.116-.316-1.116-.709 0-.362.346-.512.754-.512.543 0 .874.286.905.709h1.312a1.94 1.94 0 00-2.172-1.795c-1.116 0-2.127.573-2.127 1.629 0 1.07.754 1.327 1.916 1.644.694.166 1.13.316 1.13.678s-.391.543-.829.543a.893.893 0 01-.98-.709h-1.372a2.135 2.135 0 002.352 1.78c1.237 0 2.127-.588 2.127-1.614zm2.954.542a.893.893 0 01-.98-.709h-1.373a2.135 2.135 0 002.353 1.78c1.236 0 2.126-.588 2.126-1.614 0-1.04-.83-1.387-1.9-1.644-.694-.18-1.116-.316-1.116-.709 0-.362.347-.512.754-.512.543 0 .875.286.905.708h1.312a1.94 1.94 0 00-2.172-1.794c-1.116 0-2.127.573-2.127 1.629 0 1.07.755 1.327 1.916 1.644.694.165 1.131.316 1.131.678s-.392.543-.83.543zM126.103 5.606a4.756 4.756 0 00-4.625 3.032L110.097 34.8a.587.587 0 01-.597.39.624.624 0 01-.651-.65V10.65a4.91 4.91 0 00-5.044-5.044 4.756 4.756 0 00-4.626 3.032L85.31 40.522h4.1l13.195-30.332a1.258 1.258 0 011.2-.825c.71 0 1.286.46 1.286 1.537V34.54a4.047 4.047 0 004.41 4.41 4.291 4.291 0 004.044-2.651l11.358-26.11a1.258 1.258 0 011.201-.824c.709 0 1.285.46 1.285 1.537v29.62h3.759V10.65a4.91 4.91 0 00-5.044-5.044z"/></svg>