<svg xmlns="http://www.w3.org/2000/svg" width="1200" height="1270" viewBox="0 0 1200 1270">
    <rect width="1200" height="1270" fill="#FFFFFF"/>
    <text x="600" y="38" text-anchor="middle" fill="#17255A" font-family="Segoe UI,Arial,sans-serif" font-size="24" font-weight="700">FridayReport.AI — Azure Deployment Flow</text><text x="600" y="58" text-anchor="middle" fill="#6B7280" font-family="Segoe UI,Arial,sans-serif" font-size="13">End-to-end pipeline from source code to production on Azure Container Apps</text><rect x="30" y="80" width="1140" height="200" rx="12" fill="#10B981" opacity="0.06"/><rect x="30" y="80" width="1140" height="200" rx="12" fill="none" stroke="#10B981" stroke-width="1.5" opacity="0.2"/><rect x="46" y="86" width="270.5" height="22" rx="4" fill="#10B981" opacity="0.15"/><text x="58" y="102" fill="#10B981" font-family="Segoe UI,Arial,sans-serif" font-size="12" font-weight="700" letter-spacing="0.8">STAGE 1: BUILD &amp; CONTAINERIZE</text><rect x="152" y="135" width="160" height="48" rx="10" fill="#10B981"/><text x="232" y="152" text-anchor="middle" fill="#FFFFFF" font-family="Segoe UI,Arial,sans-serif" font-size="15" font-weight="700">Source Code</text><text x="232" y="170" text-anchor="middle" fill="#FFFFFF" font-family="Segoe UI,Arial,sans-serif" font-size="11" opacity="0.9">TypeScript + React</text><defs><marker id="am1" markerWidth="10" markerHeight="7" refX="10" refY="3.5" orient="auto"><polygon points="0 0, 10 3.5, 0 7" fill="#10B981"/></marker></defs><line x1="312" y1="159" x2="336" y2="159" stroke="#10B981" stroke-width="2" marker-end="url(#am1)"/><rect x="336" y="135" width="160" height="48" rx="10" fill="#10B981"/><text x="416" y="152" text-anchor="middle" fill="#FFFFFF" font-family="Segoe UI,Arial,sans-serif" font-size="15" font-weight="700">npm run build</text><text x="416" y="170" text-anchor="middle" fill="#FFFFFF" font-family="Segoe UI,Arial,sans-serif" font-size="11" opacity="0.9">Vite + esbuild</text><defs><marker id="am2" markerWidth="10" markerHeight="7" refX="10" refY="3.5" orient="auto"><polygon points="0 0, 10 3.5, 0 7" fill="#10B981"/></marker></defs><line x1="496" y1="159" x2="520" y2="159" stroke="#10B981" stroke-width="2" marker-end="url(#am2)"/><rect x="520" y="135" width="160" height="48" rx="10" fill="#10B981"/><text x="600" y="152" text-anchor="middle" fill="#FFFFFF" font-family="Segoe UI,Arial,sans-serif" font-size="15" font-weight="700">Build Artifacts</text><text x="600" y="170" text-anchor="middle" fill="#FFFFFF" font-family="Segoe UI,Arial,sans-serif" font-size="11" opacity="0.9">dist/index.cjs + public/</text><defs><marker id="am3" markerWidth="10" markerHeight="7" refX="10" refY="3.5" orient="auto"><polygon points="0 0, 10 3.5, 0 7" fill="#10B981"/></marker></defs><line x1="680" y1="159" x2="704" y2="159" stroke="#10B981" stroke-width="2" marker-end="url(#am3)"/><rect x="704" y="135" width="160" height="48" rx="10" fill="#10B981"/><text x="784" y="152" text-anchor="middle" fill="#FFFFFF" font-family="Segoe UI,Arial,sans-serif" font-size="15" font-weight="700">Docker Build</text><text x="784" y="170" text-anchor="middle" fill="#FFFFFF" font-family="Segoe UI,Arial,sans-serif" font-size="11" opacity="0.9">Multi-stage Dockerfile</text><defs><marker id="am4" markerWidth="10" markerHeight="7" refX="10" refY="3.5" orient="auto"><polygon points="0 0, 10 3.5, 0 7" fill="#10B981"/></marker></defs><line x1="864" y1="159" x2="888" y2="159" stroke="#10B981" stroke-width="2" marker-end="url(#am4)"/><rect x="888" y="135" width="160" height="48" rx="10" fill="#10B981"/><text x="968" y="152" text-anchor="middle" fill="#FFFFFF" font-family="Segoe UI,Arial,sans-serif" font-size="15" font-weight="700">Container Image</text><text x="968" y="170" text-anchor="middle" fill="#FFFFFF" font-family="Segoe UI,Arial,sans-serif" font-size="11" opacity="0.9">Node.js 20 + JRE 17</text><rect x="50" y="203" width="220" height="86" rx="6" fill="#FFFFFF" stroke="#10B981" stroke-width="1.5"/><rect x="50" y="203" width="220" height="4" rx="6" fill="#10B981"/><rect x="50" y="205" width="220" height="2" fill="#10B981"/><text x="62" y="223" fill="#10B981" font-family="Segoe UI,Arial,sans-serif" font-size="11" font-weight="700">Build Output</text><text x="62" y="239" fill="#17255A" font-family="Segoe UI,Arial,sans-serif" font-size="10">• dist/index.cjs (server bundle)</text><text x="62" y="255" fill="#17255A" font-family="Segoe UI,Arial,sans-serif" font-size="10">• dist/public/ (React SPA)</text><text x="62" y="271" fill="#17255A" font-family="Segoe UI,Arial,sans-serif" font-size="10">• lib/ (MPXJ JARs for .mpp)</text><rect x="290" y="203" width="220" height="86" rx="6" fill="#FFFFFF" stroke="#10B981" stroke-width="1.5"/><rect x="290" y="203" width="220" height="4" rx="6" fill="#10B981"/><rect x="290" y="205" width="220" height="2" fill="#10B981"/><text x="302" y="223" fill="#10B981" font-family="Segoe UI,Arial,sans-serif" font-size="11" font-weight="700">Dockerfile Highlights</text><text x="302" y="239" fill="#17255A" font-family="Segoe UI,Arial,sans-serif" font-size="10">• Multi-stage: build → runtime</text><text x="302" y="255" fill="#17255A" font-family="Segoe UI,Arial,sans-serif" font-size="10">• JRE 17 for MPP parser</text><text x="302" y="271" fill="#17255A" font-family="Segoe UI,Arial,sans-serif" font-size="10">• ~400-600 MB final image</text><rect x="30" y="300" width="1140" height="110" rx="12" fill="#075DD1" opacity="0.06"/><rect x="30" y="300" width="1140" height="110" rx="12" fill="none" stroke="#075DD1" stroke-width="1.5" opacity="0.2"/><rect x="46" y="306" width="253.5" height="22" rx="4" fill="#075DD1" opacity="0.15"/><text x="58" y="322" fill="#075DD1" font-family="Segoe UI,Arial,sans-serif" font-size="12" font-weight="700" letter-spacing="0.8">STAGE 2: CONTAINER REGISTRY</text><rect x="460" y="345" width="280" height="48" rx="10" fill="#075DD1"/><text x="600" y="362" text-anchor="middle" fill="#FFFFFF" font-family="Segoe UI,Arial,sans-serif" font-size="15" font-weight="700">Azure Container Registry</text><text x="600" y="380" text-anchor="middle" fill="#FFFFFF" font-family="Segoe UI,Arial,sans-serif" font-size="11" opacity="0.9">docker push / az acr build</text><defs><marker id="am5" markerWidth="10" markerHeight="7" refX="10" refY="3.5" orient="auto"><polygon points="0 0, 10 3.5, 0 7" fill="#075DD1"/></marker></defs><line x1="600" y1="272" x2="600" y2="345" stroke="#075DD1" stroke-width="2" marker-end="url(#am5)"/><text x="608" y="308.5" text-anchor="start" fill="#075DD1" font-family="Segoe UI,Arial,sans-serif" font-size="11" font-style="italic">push image</text><rect x="770" y="335" width="220" height="86" rx="6" fill="#FFFFFF" stroke="#075DD1" stroke-width="1.5"/><rect x="770" y="335" width="220" height="4" rx="6" fill="#075DD1"/><rect x="770" y="337" width="220" height="2" fill="#075DD1"/><text x="782" y="355" fill="#075DD1" font-family="Segoe UI,Arial,sans-serif" font-size="11" font-weight="700">ACR Config</text><text x="782" y="371" fill="#17255A" font-family="Segoe UI,Arial,sans-serif" font-size="10">• SKU: Standard or Premium</text><text x="782" y="387" fill="#17255A" font-family="Segoe UI,Arial,sans-serif" font-size="10">• Auth: Managed Identity (AcrPull)</text><text x="782" y="403" fill="#17255A" font-family="Segoe UI,Arial,sans-serif" font-size="10">• Alternative: az acr build (cloud)</text><rect x="30" y="430" width="1140" height="230" rx="12" fill="#17255A" opacity="0.06"/><rect x="30" y="430" width="1140" height="230" rx="12" fill="none" stroke="#17255A" stroke-width="1.5" opacity="0.2"/><rect x="46" y="436" width="270.5" height="22" rx="4" fill="#17255A" opacity="0.15"/><text x="58" y="452" fill="#17255A" font-family="Segoe UI,Arial,sans-serif" font-size="12" font-weight="700" letter-spacing="0.8">STAGE 3: AZURE INFRASTRUCTURE</text><defs><marker id="am6" markerWidth="10" markerHeight="7" refX="10" refY="3.5" orient="auto"><polygon points="0 0, 10 3.5, 0 7" fill="#17255A"/></marker></defs><line x1="600" y1="402" x2="600" y2="438" stroke="#17255A" stroke-width="2" marker-end="url(#am6)"/><text x="608" y="420" text-anchor="start" fill="#17255A" font-family="Segoe UI,Arial,sans-serif" font-size="11" font-style="italic">provision</text><rect x="100" y="480" width="150" height="55" rx="10" fill="#17255A"/><text x="175" y="500.5" text-anchor="middle" fill="#FFFFFF" font-family="Segoe UI,Arial,sans-serif" font-size="15" font-weight="700">Resource Group</text><text x="175" y="518.5" text-anchor="middle" fill="#FFFFFF" font-family="Segoe UI,Arial,sans-serif" font-size="11" opacity="0.9">fridayreport-rg</text><defs><marker id="am7" markerWidth="10" markerHeight="7" refX="10" refY="3.5" orient="auto"><polygon points="0 0, 10 3.5, 0 7" fill="#17255A"/></marker></defs><line x1="250" y1="507.5" x2="270" y2="507.5" stroke="#17255A" stroke-width="2" marker-end="url(#am7)"/><rect x="270" y="480" width="150" height="55" rx="10" fill="#075DD1"/><text x="345" y="500.5" text-anchor="middle" fill="#FFFFFF" font-family="Segoe UI,Arial,sans-serif" font-size="15" font-weight="700">PostgreSQL</text><text x="345" y="518.5" text-anchor="middle" fill="#FFFFFF" font-family="Segoe UI,Arial,sans-serif" font-size="11" opacity="0.9">Flexible Server</text><defs><marker id="am8" markerWidth="10" markerHeight="7" refX="10" refY="3.5" orient="auto"><polygon points="0 0, 10 3.5, 0 7" fill="#17255A"/></marker></defs><line x1="420" y1="507.5" x2="440" y2="507.5" stroke="#17255A" stroke-width="2" marker-end="url(#am8)"/><rect x="440" y="480" width="150" height="55" rx="10" fill="#0891B2"/><text x="515" y="500.5" text-anchor="middle" fill="#FFFFFF" font-family="Segoe UI,Arial,sans-serif" font-size="15" font-weight="700">Blob Storage</text><text x="515" y="518.5" text-anchor="middle" fill="#FFFFFF" font-family="Segoe UI,Arial,sans-serif" font-size="11" opacity="0.9">File Uploads</text><defs><marker id="am9" markerWidth="10" markerHeight="7" refX="10" refY="3.5" orient="auto"><polygon points="0 0, 10 3.5, 0 7" fill="#17255A"/></marker></defs><line x1="590" y1="507.5" x2="610" y2="507.5" stroke="#17255A" stroke-width="2" marker-end="url(#am9)"/><rect x="610" y="480" width="150" height="55" rx="10" fill="#7C3AED"/><text x="685" y="500.5" text-anchor="middle" fill="#FFFFFF" font-family="Segoe UI,Arial,sans-serif" font-size="15" font-weight="700">Key Vault</text><text x="685" y="518.5" text-anchor="middle" fill="#FFFFFF" font-family="Segoe UI,Arial,sans-serif" font-size="11" opacity="0.9">Secrets Mgmt</text><defs><marker id="am10" markerWidth="10" markerHeight="7" refX="10" refY="3.5" orient="auto"><polygon points="0 0, 10 3.5, 0 7" fill="#17255A"/></marker></defs><line x1="760" y1="507.5" x2="780" y2="507.5" stroke="#17255A" stroke-width="2" marker-end="url(#am10)"/><rect x="780" y="480" width="150" height="55" rx="10" fill="#6B7280"/><text x="855" y="500.5" text-anchor="middle" fill="#FFFFFF" font-family="Segoe UI,Arial,sans-serif" font-size="15" font-weight="700">Log Analytics</text><text x="855" y="518.5" text-anchor="middle" fill="#FFFFFF" font-family="Segoe UI,Arial,sans-serif" font-size="11" opacity="0.9">Monitoring</text><defs><marker id="am11" markerWidth="10" markerHeight="7" refX="10" refY="3.5" orient="auto"><polygon points="0 0, 10 3.5, 0 7" fill="#17255A"/></marker></defs><line x1="930" y1="507.5" x2="950" y2="507.5" stroke="#17255A" stroke-width="2" marker-end="url(#am11)"/><rect x="950" y="480" width="150" height="55" rx="10" fill="#17255A"/><text x="1025" y="500.5" text-anchor="middle" fill="#FFFFFF" font-family="Segoe UI,Arial,sans-serif" font-size="15" font-weight="700">Container Env</text><text x="1025" y="518.5" text-anchor="middle" fill="#FFFFFF" font-family="Segoe UI,Arial,sans-serif" font-size="11" opacity="0.9">Hosting Env</text><rect x="50" y="553" width="240" height="86" rx="6" fill="#FFFFFF" stroke="#075DD1" stroke-width="1.5"/><rect x="50" y="553" width="240" height="4" rx="6" fill="#075DD1"/><rect x="50" y="555" width="240" height="2" fill="#075DD1"/><text x="62" y="573" fill="#075DD1" font-family="Segoe UI,Arial,sans-serif" font-size="11" font-weight="700">PostgreSQL Config</text><text x="62" y="589" fill="#17255A" font-family="Segoe UI,Arial,sans-serif" font-size="10">• Version 15+, SKU: Standard_D4ds_v4</text><text x="62" y="605" fill="#17255A" font-family="Segoe UI,Arial,sans-serif" font-size="10">• Extensions: unaccent</text><text x="62" y="621" fill="#17255A" font-family="Segoe UI,Arial,sans-serif" font-size="10">• HA: Zone-redundant (prod)</text><rect x="310" y="553" width="240" height="102" rx="6" fill="#FFFFFF" stroke="#7C3AED" stroke-width="1.5"/><rect x="310" y="553" width="240" height="4" rx="6" fill="#7C3AED"/><rect x="310" y="555" width="240" height="2" fill="#7C3AED"/><text x="322" y="573" fill="#7C3AED" font-family="Segoe UI,Arial,sans-serif" font-size="11" font-weight="700">Key Vault Secrets</text><text x="322" y="589" fill="#17255A" font-family="Segoe UI,Arial,sans-serif" font-size="10">• DATABASE_URL, SESSION_SECRET</text><text x="322" y="605" fill="#17255A" font-family="Segoe UI,Arial,sans-serif" font-size="10">• GOOGLE_CLIENT_ID/SECRET</text><text x="322" y="621" fill="#17255A" font-family="Segoe UI,Arial,sans-serif" font-size="10">• MICROSOFT_CLIENT_ID/SECRET</text><text x="322" y="637" fill="#17255A" font-family="Segoe UI,Arial,sans-serif" font-size="10">• RESEND_API_KEY</text><rect x="30" y="680" width="1140" height="230" rx="12" fill="#FF751F" opacity="0.06"/><rect x="30" y="680" width="1140" height="230" rx="12" fill="none" stroke="#FF751F" stroke-width="1.5" opacity="0.2"/><rect x="46" y="686" width="270.5" height="22" rx="4" fill="#FF751F" opacity="0.15"/><text x="58" y="702" fill="#FF751F" font-family="Segoe UI,Arial,sans-serif" font-size="12" font-weight="700" letter-spacing="0.8">STAGE 4: DEPLOY CONTAINER APP</text><defs><marker id="am12" markerWidth="10" markerHeight="7" refX="10" refY="3.5" orient="auto"><polygon points="0 0, 10 3.5, 0 7" fill="#FF751F"/></marker></defs><line x1="600" y1="652" x2="600" y2="688" stroke="#FF751F" stroke-width="2" marker-end="url(#am12)"/><text x="608" y="670" text-anchor="start" fill="#FF751F" font-family="Segoe UI,Arial,sans-serif" font-size="11" font-style="italic">deploy</text><rect x="260" y="730" width="200" height="55" rx="10" fill="#FF751F"/><text x="360" y="750.5" text-anchor="middle" fill="#FFFFFF" font-family="Segoe UI,Arial,sans-serif" font-size="15" font-weight="700">Create Container App</text><text x="360" y="768.5" text-anchor="middle" fill="#FFFFFF" font-family="Segoe UI,Arial,sans-serif" font-size="11" opacity="0.9">az containerapp create</text><defs><marker id="am13" markerWidth="10" markerHeight="7" refX="10" refY="3.5" orient="auto"><polygon points="0 0, 10 3.5, 0 7" fill="#FF751F"/></marker></defs><line x1="460" y1="757.5" x2="500" y2="757.5" stroke="#FF751F" stroke-width="2" marker-end="url(#am13)"/><rect x="500" y="730" width="200" height="55" rx="10" fill="#7C3AED"/><text x="600" y="750.5" text-anchor="middle" fill="#FFFFFF" font-family="Segoe UI,Arial,sans-serif" font-size="15" font-weight="700">Managed Identity</text><text x="600" y="768.5" text-anchor="middle" fill="#FFFFFF" font-family="Segoe UI,Arial,sans-serif" font-size="11" opacity="0.9">ACR + Key Vault + Blob</text><defs><marker id="am14" markerWidth="10" markerHeight="7" refX="10" refY="3.5" orient="auto"><polygon points="0 0, 10 3.5, 0 7" fill="#FF751F"/></marker></defs><line x1="700" y1="757.5" x2="740" y2="757.5" stroke="#FF751F" stroke-width="2" marker-end="url(#am14)"/><rect x="740" y="730" width="200" height="55" rx="10" fill="#075DD1"/><text x="840" y="750.5" text-anchor="middle" fill="#FFFFFF" font-family="Segoe UI,Arial,sans-serif" font-size="15" font-weight="700">Ingress &amp; Domain</text><text x="840" y="768.5" text-anchor="middle" fill="#FFFFFF" font-family="Segoe UI,Arial,sans-serif" font-size="11" opacity="0.9">HTTPS + TLS Certificate</text><rect x="50" y="803" width="220" height="118" rx="6" fill="#FFFFFF" stroke="#FF751F" stroke-width="1.5"/><rect x="50" y="803" width="220" height="4" rx="6" fill="#FF751F"/><rect x="50" y="805" width="220" height="2" fill="#FF751F"/><text x="62" y="823" fill="#FF751F" font-family="Segoe UI,Arial,sans-serif" font-size="11" font-weight="700">Container App Config</text><text x="62" y="839" fill="#17255A" font-family="Segoe UI,Arial,sans-serif" font-size="10">• CPU: 1.0-2.0 vCPU</text><text x="62" y="855" fill="#17255A" font-family="Segoe UI,Arial,sans-serif" font-size="10">• Memory: 2.0-4.0 Gi</text><text x="62" y="871" fill="#17255A" font-family="Segoe UI,Arial,sans-serif" font-size="10">• Min replicas: 2 (prod)</text><text x="62" y="887" fill="#17255A" font-family="Segoe UI,Arial,sans-serif" font-size="10">• Max replicas: 10</text><text x="62" y="903" fill="#17255A" font-family="Segoe UI,Arial,sans-serif" font-size="10">• Target port: 5000</text><rect x="290" y="803" width="220" height="86" rx="6" fill="#FFFFFF" stroke="#7C3AED" stroke-width="1.5"/><rect x="290" y="803" width="220" height="4" rx="6" fill="#7C3AED"/><rect x="290" y="805" width="220" height="2" fill="#7C3AED"/><text x="302" y="823" fill="#7C3AED" font-family="Segoe UI,Arial,sans-serif" font-size="11" font-weight="700">Identity Roles</text><text x="302" y="839" fill="#17255A" font-family="Segoe UI,Arial,sans-serif" font-size="10">• AcrPull on Container Registry</text><text x="302" y="855" fill="#17255A" font-family="Segoe UI,Arial,sans-serif" font-size="10">• Key Vault Secrets User</text><text x="302" y="871" fill="#17255A" font-family="Segoe UI,Arial,sans-serif" font-size="10">• Storage Blob Data Contributor</text><rect x="530" y="803" width="220" height="102" rx="6" fill="#FFFFFF" stroke="#075DD1" stroke-width="1.5"/><rect x="530" y="803" width="220" height="4" rx="6" fill="#075DD1"/><rect x="530" y="805" width="220" height="2" fill="#075DD1"/><text x="542" y="823" fill="#075DD1" font-family="Segoe UI,Arial,sans-serif" font-size="11" font-weight="700">DNS Setup</text><text x="542" y="839" fill="#17255A" font-family="Segoe UI,Arial,sans-serif" font-size="10">• CNAME → *.azurecontainerapps.io</text><text x="542" y="855" fill="#17255A" font-family="Segoe UI,Arial,sans-serif" font-size="10">• TXT verification record</text><text x="542" y="871" fill="#17255A" font-family="Segoe UI,Arial,sans-serif" font-size="10">• Managed TLS certificate</text><text x="542" y="887" fill="#17255A" font-family="Segoe UI,Arial,sans-serif" font-size="10">• Update OAuth redirect URIs</text><rect x="30" y="930" width="1140" height="270" rx="12" fill="#E11D48" opacity="0.06"/><rect x="30" y="930" width="1140" height="270" rx="12" fill="none" stroke="#E11D48" stroke-width="1.5" opacity="0.2"/><rect x="46" y="936" width="270.5" height="22" rx="4" fill="#E11D48" opacity="0.15"/><text x="58" y="952" fill="#E11D48" font-family="Segoe UI,Arial,sans-serif" font-size="12" font-weight="700" letter-spacing="0.8">STAGE 5: RUNTIME ARCHITECTURE</text><defs><marker id="am15" markerWidth="10" markerHeight="7" refX="10" refY="3.5" orient="auto"><polygon points="0 0, 10 3.5, 0 7" fill="#E11D48"/></marker></defs><line x1="600" y1="902" x2="600" y2="938" stroke="#E11D48" stroke-width="2" marker-end="url(#am15)"/><text x="608" y="920" text-anchor="start" fill="#E11D48" font-family="Segoe UI,Arial,sans-serif" font-size="11" font-style="italic">live</text><rect x="570" y="970" width="200" height="40" rx="20" fill="#17255A"/><text x="670" y="983" text-anchor="middle" fill="#FFFFFF" font-family="Segoe UI,Arial,sans-serif" font-size="15" font-weight="700">End Users</text><text x="670" y="1001" text-anchor="middle" fill="#FFFFFF" font-family="Segoe UI,Arial,sans-serif" font-size="11" opacity="0.9">HTTPS Traffic</text><defs><marker id="am16" markerWidth="10" markerHeight="7" refX="10" refY="3.5" orient="auto"><polygon points="0 0, 10 3.5, 0 7" fill="#17255A"/></marker></defs><line x1="670" y1="1010" x2="670" y2="1030" stroke="#17255A" stroke-width="2" marker-end="url(#am16)"/><text x="678" y="1020" text-anchor="start" fill="#17255A" font-family="Segoe UI,Arial,sans-serif" font-size="11" font-style="italic">ingress</text><rect x="460" y="1030" width="280" height="55" rx="10" fill="#E11D48"/><text x="600" y="1050.5" text-anchor="middle" fill="#FFFFFF" font-family="Segoe UI,Arial,sans-serif" font-size="15" font-weight="700">FridayReport.AI</text><text x="600" y="1068.5" text-anchor="middle" fill="#FFFFFF" font-family="Segoe UI,Arial,sans-serif" font-size="11" opacity="0.9">Container App (Node.js + Express + React SPA)</text><rect x="284" y="1115" width="140" height="45" rx="10" fill="#075DD1"/><text x="354" y="1130.5" text-anchor="middle" fill="#FFFFFF" font-family="Segoe UI,Arial,sans-serif" font-size="15" font-weight="700">PostgreSQL</text><text x="354" y="1148.5" text-anchor="middle" fill="#FFFFFF" font-family="Segoe UI,Arial,sans-serif" font-size="11" opacity="0.9">Data</text><defs><marker id="am17" markerWidth="10" markerHeight="7" refX="10" refY="3.5" orient="auto"><polygon points="0 0, 10 3.5, 0 7" fill="#075DD1"/></marker></defs><line x1="530" y1="1085" x2="354" y2="1115" stroke="#075DD1" stroke-width="2" marker-end="url(#am17)"/><rect x="448" y="1115" width="140" height="45" rx="10" fill="#0891B2"/><text x="518" y="1130.5" text-anchor="middle" fill="#FFFFFF" font-family="Segoe UI,Arial,sans-serif" font-size="15" font-weight="700">Blob Storage</text><text x="518" y="1148.5" text-anchor="middle" fill="#FFFFFF" font-family="Segoe UI,Arial,sans-serif" font-size="11" opacity="0.9">Files</text><defs><marker id="am18" markerWidth="10" markerHeight="7" refX="10" refY="3.5" orient="auto"><polygon points="0 0, 10 3.5, 0 7" fill="#0891B2"/></marker></defs><line x1="580" y1="1085" x2="518" y2="1115" stroke="#0891B2" stroke-width="2" marker-end="url(#am18)"/><rect x="612" y="1115" width="140" height="45" rx="10" fill="#7C3AED"/><text x="682" y="1130.5" text-anchor="middle" fill="#FFFFFF" font-family="Segoe UI,Arial,sans-serif" font-size="15" font-weight="700">Key Vault</text><text x="682" y="1148.5" text-anchor="middle" fill="#FFFFFF" font-family="Segoe UI,Arial,sans-serif" font-size="11" opacity="0.9">Secrets</text><defs><marker id="am19" markerWidth="10" markerHeight="7" refX="10" refY="3.5" orient="auto"><polygon points="0 0, 10 3.5, 0 7" fill="#7C3AED"/></marker></defs><line x1="630" y1="1085" x2="682" y2="1115" stroke="#7C3AED" stroke-width="2" marker-end="url(#am19)"/><rect x="776" y="1115" width="140" height="45" rx="10" fill="#6B7280"/><text x="846" y="1130.5" text-anchor="middle" fill="#FFFFFF" font-family="Segoe UI,Arial,sans-serif" font-size="15" font-weight="700">Log Analytics</text><text x="846" y="1148.5" text-anchor="middle" fill="#FFFFFF" font-family="Segoe UI,Arial,sans-serif" font-size="11" opacity="0.9">Logs</text><defs><marker id="am20" markerWidth="10" markerHeight="7" refX="10" refY="3.5" orient="auto"><polygon points="0 0, 10 3.5, 0 7" fill="#6B7280"/></marker></defs><line x1="680" y1="1085" x2="846" y2="1115" stroke="#6B7280" stroke-width="2" marker-end="url(#am20)"/><rect x="770" y="1020" width="220" height="86" rx="6" fill="#FFFFFF" stroke="#E11D48" stroke-width="1.5"/><rect x="770" y="1020" width="220" height="4" rx="6" fill="#E11D48"/><rect x="770" y="1022" width="220" height="2" fill="#E11D48"/><text x="782" y="1040" fill="#E11D48" font-family="Segoe UI,Arial,sans-serif" font-size="11" font-weight="700">Background Jobs</text><text x="782" y="1056" fill="#17255A" font-family="Segoe UI,Arial,sans-serif" font-size="10">• Scheduled reports (every 15 min)</text><text x="782" y="1072" fill="#17255A" font-family="Segoe UI,Arial,sans-serif" font-size="10">• Timesheet reminders (weekdays)</text><text x="782" y="1088" fill="#17255A" font-family="Segoe UI,Arial,sans-serif" font-size="10">• node-cron inside container</text><text x="330" y="1171" fill="#6B7280" font-family="Segoe UI,Arial,sans-serif" font-size="10" font-weight="600" letter-spacing="0.5">EXTERNAL SERVICES (OUTBOUND)</text><rect x="330" y="1179" width="160" height="38" rx="10" fill="#075DD1"/><text x="410" y="1191" text-anchor="middle" fill="#FFFFFF" font-family="Segoe UI,Arial,sans-serif" font-size="15" font-weight="700">Microsoft Graph</text><text x="410" y="1209" text-anchor="middle" fill="#FFFFFF" font-family="Segoe UI,Arial,sans-serif" font-size="11" opacity="0.9">Planner / Dataverse</text><rect x="520" y="1179" width="160" height="38" rx="10" fill="#10B981"/><text x="600" y="1191" text-anchor="middle" fill="#FFFFFF" font-family="Segoe UI,Arial,sans-serif" font-size="15" font-weight="700">Google OAuth</text><text x="600" y="1209" text-anchor="middle" fill="#FFFFFF" font-family="Segoe UI,Arial,sans-serif" font-size="11" opacity="0.9">Authentication</text><rect x="710" y="1179" width="160" height="38" rx="10" fill="#FF751F"/><text x="790" y="1191" text-anchor="middle" fill="#FFFFFF" font-family="Segoe UI,Arial,sans-serif" font-size="15" font-weight="700">Resend</text><text x="790" y="1209" text-anchor="middle" fill="#FFFFFF" font-family="Segoe UI,Arial,sans-serif" font-size="11" opacity="0.9">Email Delivery</text><rect x="30" y="1220" width="1140" height="36" rx="8" fill="#17255A" opacity="0.05"/><rect x="60" y="1231" width="14" height="14" rx="3" fill="#10B981"/><text x="80" y="1243" fill="#17255A" font-family="Segoe UI,Arial,sans-serif" font-size="11" font-weight="600">Build</text><rect x="243.33333333333334" y="1231" width="14" height="14" rx="3" fill="#075DD1"/><text x="263.33333333333337" y="1243" fill="#17255A" font-family="Segoe UI,Arial,sans-serif" font-size="11" font-weight="600">Registry / Network</text><rect x="426.6666666666667" y="1231" width="14" height="14" rx="3" fill="#17255A"/><text x="446.6666666666667" y="1243" fill="#17255A" font-family="Segoe UI,Arial,sans-serif" font-size="11" font-weight="600">Infrastructure</text><rect x="610" y="1231" width="14" height="14" rx="3" fill="#FF751F"/><text x="630" y="1243" fill="#17255A" font-family="Segoe UI,Arial,sans-serif" font-size="11" font-weight="600">Deployment</text><rect x="793.3333333333334" y="1231" width="14" height="14" rx="3" fill="#7C3AED"/><text x="813.3333333333334" y="1243" fill="#17255A" font-family="Segoe UI,Arial,sans-serif" font-size="11" font-weight="600">Security</text><rect x="976.6666666666667" y="1231" width="14" height="14" rx="3" fill="#E11D48"/><text x="996.6666666666667" y="1243" fill="#17255A" font-family="Segoe UI,Arial,sans-serif" font-size="11" font-weight="600">Runtime</text>
  </svg>