<svg xmlns="http://www.w3.org/2000/svg" width="2400" height="1640" viewBox="0 0 2400 1640">
    <rect width="2400" height="1640" fill="#FFFFFF"/>
    <text x="1200" y="50" text-anchor="middle" fill="#17255A" font-family="Segoe UI, Arial, sans-serif" font-size="28" font-weight="700">FridayReport.AI - Azure Container App Deployment Flow</text><text x="1200" y="78" text-anchor="middle" fill="#6B7280" font-family="Segoe UI, Arial, sans-serif" font-size="15">End-to-end deployment pipeline from source code to production</text><rect x="40" y="110" width="540" height="32" rx="6" ry="6" fill="#10B981" opacity="0.12"/><text x="54" y="131" fill="#10B981" font-family="Segoe UI, Arial, sans-serif" font-size="14" font-weight="700" letter-spacing="1">STAGE 1: BUILD / CONTAINERIZE</text><rect x="60" y="160" width="200" height="60" rx="12" ry="12" fill="#10B981" stroke="#10B981" stroke-width="0"/><text x="160" y="182" text-anchor="middle" fill="#FFFFFF" font-family="Segoe UI, Arial, sans-serif" font-size="18" font-weight="700">Source Code</text><text x="160" y="204" text-anchor="middle" fill="#FFFFFF" font-family="Segoe UI, Arial, sans-serif" font-size="13" opacity="0.85">TypeScript / React</text><rect x="60" y="260" width="200" height="60" rx="12" ry="12" fill="#10B981" stroke="#10B981" stroke-width="0"/><text x="160" y="282" text-anchor="middle" fill="#FFFFFF" font-family="Segoe UI, Arial, sans-serif" font-size="18" font-weight="700">npm run build</text><text x="160" y="304" text-anchor="middle" fill="#FFFFFF" font-family="Segoe UI, Arial, sans-serif" font-size="13" opacity="0.85">Vite + esbuild</text><rect x="60" y="360" width="200" height="60" rx="12" ry="12" fill="#10B981" stroke="#10B981" stroke-width="0"/><text x="160" y="382" text-anchor="middle" fill="#FFFFFF" font-family="Segoe UI, Arial, sans-serif" font-size="18" font-weight="700">Build Artifacts</text><text x="160" y="404" text-anchor="middle" fill="#FFFFFF" font-family="Segoe UI, Arial, sans-serif" font-size="13" opacity="0.85">dist/index.cjs + dist/public/</text><rect x="60" y="460" width="200" height="60" rx="12" ry="12" fill="#10B981" stroke="#10B981" stroke-width="0"/><text x="160" y="482" text-anchor="middle" fill="#FFFFFF" font-family="Segoe UI, Arial, sans-serif" font-size="18" font-weight="700">Docker Build</text><text x="160" y="504" text-anchor="middle" fill="#FFFFFF" font-family="Segoe UI, Arial, sans-serif" font-size="13" opacity="0.85">Multi-stage Dockerfile</text><rect x="60" y="560" width="200" height="60" rx="12" ry="12" fill="#10B981" stroke="#10B981" stroke-width="0"/><text x="160" y="582" text-anchor="middle" fill="#FFFFFF" font-family="Segoe UI, Arial, sans-serif" font-size="18" font-weight="700">Container Image</text><text x="160" y="604" text-anchor="middle" fill="#FFFFFF" font-family="Segoe UI, Arial, sans-serif" font-size="13" opacity="0.85">Node.js 20 + JRE 17</text><defs><marker id="ah1" markerWidth="10" markerHeight="7" refX="10" refY="3.5" orient="auto"><polygon points="0 0, 10 3.5, 0 7" fill="#6B7280"/></marker></defs><line x1="160" y1="220" x2="160" y2="260" stroke="#6B7280" stroke-width="2.5" marker-end="url(#ah1)"/><defs><marker id="ah2" markerWidth="10" markerHeight="7" refX="10" refY="3.5" orient="auto"><polygon points="0 0, 10 3.5, 0 7" fill="#6B7280"/></marker></defs><line x1="160" y1="320" x2="160" y2="360" stroke="#6B7280" stroke-width="2.5" marker-end="url(#ah2)"/><defs><marker id="ah3" markerWidth="10" markerHeight="7" refX="10" refY="3.5" orient="auto"><polygon points="0 0, 10 3.5, 0 7" fill="#6B7280"/></marker></defs><line x1="160" y1="420" x2="160" y2="460" stroke="#6B7280" stroke-width="2.5" marker-end="url(#ah3)"/><defs><marker id="ah4" markerWidth="10" markerHeight="7" refX="10" refY="3.5" orient="auto"><polygon points="0 0, 10 3.5, 0 7" fill="#6B7280"/></marker></defs><line x1="160" y1="520" x2="160" y2="560" stroke="#6B7280" stroke-width="2.5" marker-end="url(#ah4)"/><rect x="300" y="160" width="260" height="124" rx="8" ry="8" fill="#FFFFFF" stroke="#10B981" stroke-width="2"/><rect x="300" y="160" width="260" height="6" rx="8" ry="8" fill="#10B981"/><rect x="300" y="163" width="260" height="3" fill="#10B981"/><text x="314" y="188" fill="#10B981" font-family="Segoe UI, Arial, sans-serif" font-size="14" font-weight="700">Build Output</text><text x="314" y="210" fill="#17255A" font-family="Segoe UI, Arial, sans-serif" font-size="12">dist/index.cjs (bundled server)</text><text x="314" y="228" fill="#17255A" font-family="Segoe UI, Arial, sans-serif" font-size="12">dist/public/ (React SPA)</text><text x="314" y="246" fill="#17255A" font-family="Segoe UI, Arial, sans-serif" font-size="12">public/ (avatars, logos)</text><text x="314" y="264" fill="#17255A" font-family="Segoe UI, Arial, sans-serif" font-size="12">lib/ (MPXJ JARs)</text><rect x="40" y="660" width="540" height="32" rx="6" ry="6" fill="#075DD1" opacity="0.12"/><text x="54" y="681" fill="#075DD1" font-family="Segoe UI, Arial, sans-serif" font-size="14" font-weight="700" letter-spacing="1">STAGE 2: REGISTRY</text><rect x="60" y="710" width="200" height="60" rx="12" ry="12" fill="#075DD1" stroke="#075DD1" stroke-width="0"/><text x="160" y="732" text-anchor="middle" fill="#FFFFFF" font-family="Segoe UI, Arial, sans-serif" font-size="18" font-weight="700">Push to ACR</text><text x="160" y="754" text-anchor="middle" fill="#FFFFFF" font-family="Segoe UI, Arial, sans-serif" font-size="13" opacity="0.85">Azure Container Registry</text><defs><marker id="ah5" markerWidth="10" markerHeight="7" refX="10" refY="3.5" orient="auto"><polygon points="0 0, 10 3.5, 0 7" fill="#6B7280"/></marker></defs><line x1="160" y1="620" x2="160" y2="710" stroke="#6B7280" stroke-width="2.5" marker-end="url(#ah5)"/><text x="168" y="665" text-anchor="start" fill="#6B7280" font-family="Segoe UI, Arial, sans-serif" font-size="12" font-style="italic">docker push</text><rect x="300" y="700" width="260" height="106" rx="8" ry="8" fill="#FFFFFF" stroke="#075DD1" stroke-width="2"/><rect x="300" y="700" width="260" height="6" rx="8" ry="8" fill="#075DD1"/><rect x="300" y="703" width="260" height="3" fill="#075DD1"/><text x="314" y="728" fill="#075DD1" font-family="Segoe UI, Arial, sans-serif" font-size="14" font-weight="700">ACR Configuration</text><text x="314" y="750" fill="#17255A" font-family="Segoe UI, Arial, sans-serif" font-size="12">SKU: Standard (or Premium)</text><text x="314" y="768" fill="#17255A" font-family="Segoe UI, Arial, sans-serif" font-size="12">Auth: Managed Identity (AcrPull)</text><text x="314" y="786" fill="#17255A" font-family="Segoe UI, Arial, sans-serif" font-size="12">Alt: az acr build (cloud build)</text><rect x="640" y="110" width="580" height="32" rx="6" ry="6" fill="#17255A" opacity="0.12"/><text x="654" y="131" fill="#17255A" font-family="Segoe UI, Arial, sans-serif" font-size="14" font-weight="700" letter-spacing="1">STAGE 3: AZURE INFRASTRUCTURE</text><rect x="660" y="160" width="220" height="55" rx="12" ry="12" fill="#17255A" stroke="#17255A" stroke-width="0"/><text x="770" y="179.5" text-anchor="middle" fill="#FFFFFF" font-family="Segoe UI, Arial, sans-serif" font-size="18" font-weight="700">Resource Group</text><text x="770" y="201.5" text-anchor="middle" fill="#FFFFFF" font-family="Segoe UI, Arial, sans-serif" font-size="13" opacity="0.85">fridayreport-rg</text><rect x="660" y="250" width="220" height="55" rx="12" ry="12" fill="#075DD1" stroke="#075DD1" stroke-width="0"/><text x="770" y="269.5" text-anchor="middle" fill="#FFFFFF" font-family="Segoe UI, Arial, sans-serif" font-size="18" font-weight="700">PostgreSQL Flexible</text><text x="770" y="291.5" text-anchor="middle" fill="#FFFFFF" font-family="Segoe UI, Arial, sans-serif" font-size="13" opacity="0.85">Database Server</text><rect x="660" y="340" width="220" height="55" rx="12" ry="12" fill="#0891B2" stroke="#0891B2" stroke-width="0"/><text x="770" y="359.5" text-anchor="middle" fill="#FFFFFF" font-family="Segoe UI, Arial, sans-serif" font-size="18" font-weight="700">Azure Blob Storage</text><text x="770" y="381.5" text-anchor="middle" fill="#FFFFFF" font-family="Segoe UI, Arial, sans-serif" font-size="13" opacity="0.85">File Uploads &amp; Documents</text><rect x="660" y="430" width="220" height="55" rx="12" ry="12" fill="#7C3AED" stroke="#7C3AED" stroke-width="0"/><text x="770" y="449.5" text-anchor="middle" fill="#FFFFFF" font-family="Segoe UI, Arial, sans-serif" font-size="18" font-weight="700">Azure Key Vault</text><text x="770" y="471.5" text-anchor="middle" fill="#FFFFFF" font-family="Segoe UI, Arial, sans-serif" font-size="13" opacity="0.85">Secrets Management</text><rect x="660" y="520" width="220" height="55" rx="12" ry="12" fill="#6B7280" stroke="#6B7280" stroke-width="0"/><text x="770" y="539.5" text-anchor="middle" fill="#FFFFFF" font-family="Segoe UI, Arial, sans-serif" font-size="18" font-weight="700">Log Analytics</text><text x="770" y="561.5" text-anchor="middle" fill="#FFFFFF" font-family="Segoe UI, Arial, sans-serif" font-size="13" opacity="0.85">Monitoring Workspace</text><rect x="660" y="610" width="220" height="55" rx="12" ry="12" fill="#17255A" stroke="#17255A" stroke-width="0"/><text x="770" y="629.5" text-anchor="middle" fill="#FFFFFF" font-family="Segoe UI, Arial, sans-serif" font-size="18" font-weight="700">Container App Env</text><text x="770" y="651.5" text-anchor="middle" fill="#FFFFFF" font-family="Segoe UI, Arial, sans-serif" font-size="13" opacity="0.85">Hosting Environment</text><defs><marker id="ah6" markerWidth="10" markerHeight="7" refX="10" refY="3.5" orient="auto"><polygon points="0 0, 10 3.5, 0 7" fill="#17255A"/></marker></defs><line x1="770" y1="215" x2="770" y2="250" stroke="#17255A" stroke-width="2.5" marker-end="url(#ah6)"/><defs><marker id="ah7" markerWidth="10" markerHeight="7" refX="10" refY="3.5" orient="auto"><polygon points="0 0, 10 3.5, 0 7" fill="#17255A"/></marker></defs><line x1="770" y1="305" x2="770" y2="340" stroke="#17255A" stroke-width="2.5" marker-end="url(#ah7)"/><defs><marker id="ah8" markerWidth="10" markerHeight="7" refX="10" refY="3.5" orient="auto"><polygon points="0 0, 10 3.5, 0 7" fill="#17255A"/></marker></defs><line x1="770" y1="395" x2="770" y2="430" stroke="#17255A" stroke-width="2.5" marker-end="url(#ah8)"/><defs><marker id="ah9" markerWidth="10" markerHeight="7" refX="10" refY="3.5" orient="auto"><polygon points="0 0, 10 3.5, 0 7" fill="#17255A"/></marker></defs><line x1="770" y1="485" x2="770" y2="520" stroke="#17255A" stroke-width="2.5" marker-end="url(#ah9)"/><defs><marker id="ah10" markerWidth="10" markerHeight="7" refX="10" refY="3.5" orient="auto"><polygon points="0 0, 10 3.5, 0 7" fill="#17255A"/></marker></defs><line x1="770" y1="575" x2="770" y2="610" stroke="#17255A" stroke-width="2.5" marker-end="url(#ah10)"/><rect x="920" y="240" width="280" height="124" rx="8" ry="8" fill="#FFFFFF" stroke="#075DD1" stroke-width="2"/><rect x="920" y="240" width="280" height="6" rx="8" ry="8" fill="#075DD1"/><rect x="920" y="243" width="280" height="3" fill="#075DD1"/><text x="934" y="268" fill="#075DD1" font-family="Segoe UI, Arial, sans-serif" font-size="14" font-weight="700">PostgreSQL Config</text><text x="934" y="290" fill="#17255A" font-family="Segoe UI, Arial, sans-serif" font-size="12">Version: 15+</text><text x="934" y="308" fill="#17255A" font-family="Segoe UI, Arial, sans-serif" font-size="12">SKU: Standard_D4ds_v4 (prod)</text><text x="934" y="326" fill="#17255A" font-family="Segoe UI, Arial, sans-serif" font-size="12">Extension: unaccent</text><text x="934" y="344" fill="#17255A" font-family="Segoe UI, Arial, sans-serif" font-size="12">HA: zone-redundant</text><rect x="920" y="420" width="280" height="178" rx="8" ry="8" fill="#FFFFFF" stroke="#7C3AED" stroke-width="2"/><rect x="920" y="420" width="280" height="6" rx="8" ry="8" fill="#7C3AED"/><rect x="920" y="423" width="280" height="3" fill="#7C3AED"/><text x="934" y="448" fill="#7C3AED" font-family="Segoe UI, Arial, sans-serif" font-size="14" font-weight="700">Key Vault Secrets</text><text x="934" y="470" fill="#17255A" font-family="Segoe UI, Arial, sans-serif" font-size="12">DATABASE_URL</text><text x="934" y="488" fill="#17255A" font-family="Segoe UI, Arial, sans-serif" font-size="12">SESSION_SECRET</text><text x="934" y="506" fill="#17255A" font-family="Segoe UI, Arial, sans-serif" font-size="12">AI_INTEGRATIONS_OPENAI_API_KEY</text><text x="934" y="524" fill="#17255A" font-family="Segoe UI, Arial, sans-serif" font-size="12">GOOGLE_CLIENT_ID/SECRET</text><text x="934" y="542" fill="#17255A" font-family="Segoe UI, Arial, sans-serif" font-size="12">MICROSOFT_CLIENT_ID/SECRET</text><text x="934" y="560" fill="#17255A" font-family="Segoe UI, Arial, sans-serif" font-size="12">PAYPAL_CLIENT_ID/SECRET</text><text x="934" y="578" fill="#17255A" font-family="Segoe UI, Arial, sans-serif" font-size="12">RESEND_API_KEY</text><rect x="40" y="810" width="1180" height="32" rx="6" ry="6" fill="#FF751F" opacity="0.12"/><text x="54" y="831" fill="#FF751F" font-family="Segoe UI, Arial, sans-serif" font-size="14" font-weight="700" letter-spacing="1">STAGE 4: DEPLOY CONTAINER APP</text><rect x="60" y="870" width="250" height="70" rx="12" ry="12" fill="#FF751F" stroke="#FF751F" stroke-width="0"/><text x="185" y="897" text-anchor="middle" fill="#FFFFFF" font-family="Segoe UI, Arial, sans-serif" font-size="18" font-weight="700">Deploy Container App</text><text x="185" y="919" text-anchor="middle" fill="#FFFFFF" font-family="Segoe UI, Arial, sans-serif" font-size="13" opacity="0.85">az containerapp create</text><defs><marker id="ah11" markerWidth="10" markerHeight="7" refX="10" refY="3.5" orient="auto"><polygon points="0 0, 10 3.5, 0 7" fill="#FF751F"/></marker></defs><line x1="160" y1="770" x2="160" y2="870" stroke="#FF751F" stroke-width="2.5" marker-end="url(#ah11)"/><text x="168" y="820" text-anchor="start" fill="#FF751F" font-family="Segoe UI, Arial, sans-serif" font-size="12" font-style="italic">pull image</text><defs><marker id="ah12" markerWidth="10" markerHeight="7" refX="10" refY="3.5" orient="auto"><polygon points="0 0, 10 3.5, 0 7" fill="#17255A"/></marker></defs><line x1="770" y1="665" x2="770" y2="810" stroke="#17255A" stroke-width="2.5" marker-end="url(#ah12)" stroke-dasharray="8,4"/><defs><marker id="ah13" markerWidth="10" markerHeight="7" refX="10" refY="3.5" orient="auto"><polygon points="0 0, 10 3.5, 0 7" fill="#17255A"/></marker></defs><line x1="770" y1="810" x2="310" y2="905" stroke="#17255A" stroke-width="2.5" marker-end="url(#ah13)" stroke-dasharray="8,4"/><rect x="370" y="870" width="250" height="70" rx="12" ry="12" fill="#7C3AED" stroke="#7C3AED" stroke-width="0"/><text x="495" y="897" text-anchor="middle" fill="#FFFFFF" font-family="Segoe UI, Arial, sans-serif" font-size="18" font-weight="700">Managed Identity</text><text x="495" y="919" text-anchor="middle" fill="#FFFFFF" font-family="Segoe UI, Arial, sans-serif" font-size="13" opacity="0.85">ACR + Key Vault + Blob</text><defs><marker id="ah14" markerWidth="10" markerHeight="7" refX="10" refY="3.5" orient="auto"><polygon points="0 0, 10 3.5, 0 7" fill="#FF751F"/></marker></defs><line x1="310" y1="905" x2="370" y2="905" stroke="#FF751F" stroke-width="2.5" marker-end="url(#ah14)"/><rect x="680" y="870" width="250" height="70" rx="12" ry="12" fill="#075DD1" stroke="#075DD1" stroke-width="0"/><text x="805" y="897" text-anchor="middle" fill="#FFFFFF" font-family="Segoe UI, Arial, sans-serif" font-size="18" font-weight="700">Ingress &amp; Custom Domain</text><text x="805" y="919" text-anchor="middle" fill="#FFFFFF" font-family="Segoe UI, Arial, sans-serif" font-size="13" opacity="0.85">HTTPS + TLS Certificate</text><defs><marker id="ah15" markerWidth="10" markerHeight="7" refX="10" refY="3.5" orient="auto"><polygon points="0 0, 10 3.5, 0 7" fill="#FF751F"/></marker></defs><line x1="620" y1="905" x2="680" y2="905" stroke="#FF751F" stroke-width="2.5" marker-end="url(#ah15)"/><rect x="60" y="970" width="280" height="142" rx="8" ry="8" fill="#FFFFFF" stroke="#FF751F" stroke-width="2"/><rect x="60" y="970" width="280" height="6" rx="8" ry="8" fill="#FF751F"/><rect x="60" y="973" width="280" height="3" fill="#FF751F"/><text x="74" y="998" fill="#FF751F" font-family="Segoe UI, Arial, sans-serif" font-size="14" font-weight="700">Container App Config</text><text x="74" y="1020" fill="#17255A" font-family="Segoe UI, Arial, sans-serif" font-size="12">CPU: 1.0-2.0 vCPU</text><text x="74" y="1038" fill="#17255A" font-family="Segoe UI, Arial, sans-serif" font-size="12">Memory: 2.0-4.0 Gi</text><text x="74" y="1056" fill="#17255A" font-family="Segoe UI, Arial, sans-serif" font-size="12">Min replicas: 2 (prod)</text><text x="74" y="1074" fill="#17255A" font-family="Segoe UI, Arial, sans-serif" font-size="12">Max replicas: 10</text><text x="74" y="1092" fill="#17255A" font-family="Segoe UI, Arial, sans-serif" font-size="12">Target port: 5000</text><rect x="370" y="970" width="280" height="106" rx="8" ry="8" fill="#FFFFFF" stroke="#7C3AED" stroke-width="2"/><rect x="370" y="970" width="280" height="6" rx="8" ry="8" fill="#7C3AED"/><rect x="370" y="973" width="280" height="3" fill="#7C3AED"/><text x="384" y="998" fill="#7C3AED" font-family="Segoe UI, Arial, sans-serif" font-size="14" font-weight="700">Identity Role Assignments</text><text x="384" y="1020" fill="#17255A" font-family="Segoe UI, Arial, sans-serif" font-size="12">AcrPull on Container Registry</text><text x="384" y="1038" fill="#17255A" font-family="Segoe UI, Arial, sans-serif" font-size="12">Key Vault Secrets User</text><text x="384" y="1056" fill="#17255A" font-family="Segoe UI, Arial, sans-serif" font-size="12">Storage Blob Data Contributor</text><rect x="680" y="970" width="280" height="124" rx="8" ry="8" fill="#FFFFFF" stroke="#075DD1" stroke-width="2"/><rect x="680" y="970" width="280" height="6" rx="8" ry="8" fill="#075DD1"/><rect x="680" y="973" width="280" height="3" fill="#075DD1"/><text x="694" y="998" fill="#075DD1" font-family="Segoe UI, Arial, sans-serif" font-size="14" font-weight="700">DNS Configuration</text><text x="694" y="1020" fill="#17255A" font-family="Segoe UI, Arial, sans-serif" font-size="12">CNAME: app -&gt; *.azurecontainerapps.io</text><text x="694" y="1038" fill="#17255A" font-family="Segoe UI, Arial, sans-serif" font-size="12">TXT: asuid.app -&gt; verification ID</text><text x="694" y="1056" fill="#17255A" font-family="Segoe UI, Arial, sans-serif" font-size="12">Managed TLS certificate</text><text x="694" y="1074" fill="#17255A" font-family="Segoe UI, Arial, sans-serif" font-size="12">Update OAuth redirect URIs</text><rect x="40" y="1150" width="1180" height="32" rx="6" ry="6" fill="#E11D48" opacity="0.12"/><text x="54" y="1171" fill="#E11D48" font-family="Segoe UI, Arial, sans-serif" font-size="14" font-weight="700" letter-spacing="1">STAGE 5: RUNTIME ARCHITECTURE</text><rect x="340" y="1210" width="320" height="80" rx="12" ry="12" fill="#E11D48" stroke="#E11D48" stroke-width="0"/><text x="500" y="1242" text-anchor="middle" fill="#FFFFFF" font-family="Segoe UI, Arial, sans-serif" font-size="18" font-weight="700">FridayReport.AI</text><text x="500" y="1264" text-anchor="middle" fill="#FFFFFF" font-family="Segoe UI, Arial, sans-serif" font-size="13" opacity="0.85">Container App (Node.js + Express + React SPA)</text><rect x="60" y="1340" width="180" height="55" rx="12" ry="12" fill="#075DD1" stroke="#075DD1" stroke-width="0"/><text x="150" y="1359.5" text-anchor="middle" fill="#FFFFFF" font-family="Segoe UI, Arial, sans-serif" font-size="18" font-weight="700">PostgreSQL</text><text x="150" y="1381.5" text-anchor="middle" fill="#FFFFFF" font-family="Segoe UI, Arial, sans-serif" font-size="13" opacity="0.85">Data Persistence</text><rect x="270" y="1340" width="180" height="55" rx="12" ry="12" fill="#0891B2" stroke="#0891B2" stroke-width="0"/><text x="360" y="1359.5" text-anchor="middle" fill="#FFFFFF" font-family="Segoe UI, Arial, sans-serif" font-size="18" font-weight="700">Blob Storage</text><text x="360" y="1381.5" text-anchor="middle" fill="#FFFFFF" font-family="Segoe UI, Arial, sans-serif" font-size="13" opacity="0.85">File Storage</text><rect x="480" y="1340" width="180" height="55" rx="12" ry="12" fill="#7C3AED" stroke="#7C3AED" stroke-width="0"/><text x="570" y="1359.5" text-anchor="middle" fill="#FFFFFF" font-family="Segoe UI, Arial, sans-serif" font-size="18" font-weight="700">Key Vault</text><text x="570" y="1381.5" text-anchor="middle" fill="#FFFFFF" font-family="Segoe UI, Arial, sans-serif" font-size="13" opacity="0.85">Secrets</text><rect x="690" y="1340" width="180" height="55" rx="12" ry="12" fill="#6B7280" stroke="#6B7280" stroke-width="0"/><text x="780" y="1359.5" text-anchor="middle" fill="#FFFFFF" font-family="Segoe UI, Arial, sans-serif" font-size="18" font-weight="700">Log Analytics</text><text x="780" y="1381.5" text-anchor="middle" fill="#FFFFFF" font-family="Segoe UI, Arial, sans-serif" font-size="13" opacity="0.85">Monitoring</text><defs><marker id="ah16" markerWidth="10" markerHeight="7" refX="10" refY="3.5" orient="auto"><polygon points="0 0, 10 3.5, 0 7" fill="#075DD1"/></marker></defs><line x1="400" y1="1290" x2="150" y2="1340" stroke="#075DD1" stroke-width="2.5" marker-end="url(#ah16)"/><defs><marker id="ah17" markerWidth="10" markerHeight="7" refX="10" refY="3.5" orient="auto"><polygon points="0 0, 10 3.5, 0 7" fill="#0891B2"/></marker></defs><line x1="450" y1="1290" x2="360" y2="1340" stroke="#0891B2" stroke-width="2.5" marker-end="url(#ah17)"/><defs><marker id="ah18" markerWidth="10" markerHeight="7" refX="10" refY="3.5" orient="auto"><polygon points="0 0, 10 3.5, 0 7" fill="#7C3AED"/></marker></defs><line x1="550" y1="1290" x2="570" y2="1340" stroke="#7C3AED" stroke-width="2.5" marker-end="url(#ah18)"/><defs><marker id="ah19" markerWidth="10" markerHeight="7" refX="10" refY="3.5" orient="auto"><polygon points="0 0, 10 3.5, 0 7" fill="#6B7280"/></marker></defs><line x1="600" y1="1290" x2="780" y2="1340" stroke="#6B7280" stroke-width="2.5" marker-end="url(#ah19)"/><rect x="40" y="1430" width="1180" height="32" rx="6" ry="6" fill="#6B7280" opacity="0.12"/><text x="54" y="1451" fill="#6B7280" font-family="Segoe UI, Arial, sans-serif" font-size="14" font-weight="700" letter-spacing="1">EXTERNAL SERVICES (Outbound)</text><rect x="60" y="1480" width="160" height="50" rx="12" ry="12" fill="#17255A" stroke="#17255A" stroke-width="0"/><text x="140" y="1497" text-anchor="middle" fill="#FFFFFF" font-family="Segoe UI, Arial, sans-serif" font-size="18" font-weight="700">OpenAI API</text><text x="140" y="1519" text-anchor="middle" fill="#FFFFFF" font-family="Segoe UI, Arial, sans-serif" font-size="13" opacity="0.85">GPT-4o</text><rect x="240" y="1480" width="160" height="50" rx="12" ry="12" fill="#075DD1" stroke="#075DD1" stroke-width="0"/><text x="320" y="1497" text-anchor="middle" fill="#FFFFFF" font-family="Segoe UI, Arial, sans-serif" font-size="18" font-weight="700">Microsoft Graph</text><text x="320" y="1519" text-anchor="middle" fill="#FFFFFF" font-family="Segoe UI, Arial, sans-serif" font-size="13" opacity="0.85">Planner / Dataverse</text><rect x="420" y="1480" width="160" height="50" rx="12" ry="12" fill="#10B981" stroke="#10B981" stroke-width="0"/><text x="500" y="1497" text-anchor="middle" fill="#FFFFFF" font-family="Segoe UI, Arial, sans-serif" font-size="18" font-weight="700">Google OAuth</text><text x="500" y="1519" text-anchor="middle" fill="#FFFFFF" font-family="Segoe UI, Arial, sans-serif" font-size="13" opacity="0.85">Authentication</text><rect x="600" y="1480" width="160" height="50" rx="12" ry="12" fill="#FF751F" stroke="#FF751F" stroke-width="0"/><text x="680" y="1497" text-anchor="middle" fill="#FFFFFF" font-family="Segoe UI, Arial, sans-serif" font-size="18" font-weight="700">Resend</text><text x="680" y="1519" text-anchor="middle" fill="#FFFFFF" font-family="Segoe UI, Arial, sans-serif" font-size="13" opacity="0.85">Email Delivery</text><rect x="780" y="1480" width="160" height="50" rx="12" ry="12" fill="#7C3AED" stroke="#7C3AED" stroke-width="0"/><text x="860" y="1497" text-anchor="middle" fill="#FFFFFF" font-family="Segoe UI, Arial, sans-serif" font-size="18" font-weight="700">PayPal</text><text x="860" y="1519" text-anchor="middle" fill="#FFFFFF" font-family="Segoe UI, Arial, sans-serif" font-size="13" opacity="0.85">Payments</text><rect x="400" y="1130" width="200" height="50" rx="25" ry="25" fill="#17255A" stroke="#17255A" stroke-width="0"/><text x="500" y="1147" text-anchor="middle" fill="#FFFFFF" font-family="Segoe UI, Arial, sans-serif" font-size="18" font-weight="700">End Users</text><text x="500" y="1169" text-anchor="middle" fill="#FFFFFF" font-family="Segoe UI, Arial, sans-serif" font-size="13" opacity="0.85">HTTPS Traffic</text><defs><marker id="ah20" markerWidth="10" markerHeight="7" refX="10" refY="3.5" orient="auto"><polygon points="0 0, 10 3.5, 0 7" fill="#17255A"/></marker></defs><line x1="500" y1="1180" x2="500" y2="1210" stroke="#17255A" stroke-width="2.5" marker-end="url(#ah20)"/><text x="508" y="1195" text-anchor="start" fill="#17255A" font-family="Segoe UI, Arial, sans-serif" font-size="12" font-style="italic">Ingress</text><rect x="720" y="1200" width="260" height="106" rx="8" ry="8" fill="#FFFFFF" stroke="#E11D48" stroke-width="2"/><rect x="720" y="1200" width="260" height="6" rx="8" ry="8" fill="#E11D48"/><rect x="720" y="1203" width="260" height="3" fill="#E11D48"/><text x="734" y="1228" fill="#E11D48" font-family="Segoe UI, Arial, sans-serif" font-size="14" font-weight="700">Background Jobs</text><text x="734" y="1250" fill="#17255A" font-family="Segoe UI, Arial, sans-serif" font-size="12">Scheduled reports (every 15 min)</text><text x="734" y="1268" fill="#17255A" font-family="Segoe UI, Arial, sans-serif" font-size="12">Timesheet reminders (weekdays)</text><text x="734" y="1286" fill="#17255A" font-family="Segoe UI, Arial, sans-serif" font-size="12">node-cron inside container</text><text x="60" y="1580" fill="#17255A" font-family="Segoe UI, Arial, sans-serif" font-size="14" font-weight="700">LEGEND</text><rect x="60" y="1590" width="16" height="16" rx="3" fill="#10B981"/><text x="82" y="1603" fill="#17255A" font-family="Segoe UI, Arial, sans-serif" font-size="13">Build / Containerize</text><rect x="230" y="1590" width="16" height="16" rx="3" fill="#075DD1"/><text x="252" y="1603" fill="#17255A" font-family="Segoe UI, Arial, sans-serif" font-size="13">Registry / Networking</text><rect x="400" y="1590" width="16" height="16" rx="3" fill="#17255A"/><text x="422" y="1603" fill="#17255A" font-family="Segoe UI, Arial, sans-serif" font-size="13">Infrastructure</text><rect x="570" y="1590" width="16" height="16" rx="3" fill="#FF751F"/><text x="592" y="1603" fill="#17255A" font-family="Segoe UI, Arial, sans-serif" font-size="13">Deployment</text><rect x="740" y="1590" width="16" height="16" rx="3" fill="#7C3AED"/><text x="762" y="1603" fill="#17255A" font-family="Segoe UI, Arial, sans-serif" font-size="13">Security / Identity</text><rect x="910" y="1590" width="16" height="16" rx="3" fill="#E11D48"/><text x="932" y="1603" fill="#17255A" font-family="Segoe UI, Arial, sans-serif" font-size="13">Runtime</text>
  </svg>